<svg version="1.1" id="Layer_1" xmlns="http://www.w3.org/2000/svg" xmlns:xlink="http://www.w3.org/1999/xlink" x="0px" y="0px"
	 width="100%" viewBox="0 0 1008 1024" enable-background="new 0 0 1008 1024" xml:space="preserve">
<path fill="#000000" opacity="1.000000" stroke="none" 
	d="
M500.063965,150.191803 
	C517.950439,129.058502 536.394287,108.915634 555.099365,89.005966 
	C556.842957,87.150085 558.999634,86.503731 561.287781,86.085213 
	C599.415833,79.111328 637.554688,72.196381 675.673889,65.174866 
	C679.691345,64.434853 683.295898,65.488876 686.853638,66.870834 
	C697.714722,71.089706 708.504883,75.491310 719.361206,79.722832 
	C721.917419,80.719154 724.005493,82.153870 725.861023,84.173584 
	C732.054443,90.914803 738.501526,97.428185 744.553650,104.291481 
	C747.078491,107.154724 749.799805,107.971992 753.373657,107.550331 
	C778.155762,104.626450 802.991821,102.351646 827.894104,100.633415 
	C846.150024,99.373779 864.340149,97.160561 882.559326,95.369522 
	C883.719116,95.255508 884.873474,95.066010 886.035461,94.998611 
	C892.579041,94.619049 893.088867,95.085876 893.093384,101.822639 
	C893.113342,131.484344 893.059387,161.146271 893.174133,190.807556 
	C893.190613,195.068588 891.845520,198.454071 889.268860,201.772415 
	C877.011047,217.558533 864.814514,233.394699 852.815613,249.377762 
	C849.499146,253.795395 845.670349,256.717682 840.430420,258.792603 
	C810.249878,270.743530 780.234619,283.111816 750.156921,295.322784 
	C745.242310,297.317993 743.408936,302.133270 740.824402,306.014099 
	C719.317078,338.308960 698.042419,370.758789 676.724304,403.179504 
	C674.071411,407.214081 671.595825,411.364838 668.992188,415.432373 
	C668.332458,416.463013 668.170593,418.089722 665.286926,417.911194 
	C679.028076,383.089661 692.248901,348.427887 704.881653,313.611847 
	C702.491699,311.809387 700.686584,313.094910 698.915894,313.764191 
	C685.523499,318.826294 672.154846,323.951080 658.765503,329.021301 
	C652.171326,331.518372 651.393311,331.119507 649.116882,324.415619 
	C637.023193,288.801025 624.710999,253.258484 612.926514,217.541855 
	C606.824829,199.048981 599.806641,180.857361 594.553040,162.083755 
	C594.244751,160.982117 593.692261,159.948822 592.346985,159.094208 
	C612.867493,264.746124 633.388000,370.398010 653.870667,475.855072 
	C651.879761,476.886108 651.022034,475.851410 650.102844,475.254822 
	C605.126770,446.061615 560.218750,416.763123 515.172546,387.678558 
	C488.455353,370.428253 461.567413,353.440399 434.635864,336.526276 
	C430.721832,334.068115 430.131317,331.762360 431.746857,327.553345 
	C451.131470,277.049255 470.261169,226.447189 489.696075,175.962616 
	C492.976715,167.440689 495.290283,158.508728 500.063965,150.191803 
M742.800293,198.286850 
	C739.947571,204.853119 736.881775,211.336807 734.295959,218.006577 
	C731.065918,226.337921 726.126648,234.082336 725.512329,243.347458 
	C725.237610,247.491486 724.588745,251.584274 723.768433,255.687531 
	C722.204224,263.512360 719.841736,271.185760 719.187561,279.195709 
	C718.854614,283.271942 720.229675,284.243530 724.114258,282.824677 
	C734.590637,278.998260 745.164551,275.439819 755.685852,271.735382 
	C781.283813,262.722534 806.865112,253.662018 832.478088,244.691895 
	C835.779846,243.535583 838.135010,241.600296 840.120300,238.689590 
	C851.567139,221.907516 863.153076,205.220001 874.758423,188.546783 
	C876.173340,186.513947 876.694946,184.414886 876.679993,182.000351 
	C876.624023,173.001404 876.369568,163.988815 876.775574,155.007858 
	C876.992371,150.211624 875.056335,147.686859 871.041199,145.686203 
	C861.201660,140.783447 851.585449,135.425980 841.684753,130.655380 
	C837.136414,128.463791 833.920959,125.769562 833.289551,120.535561 
	C832.926636,117.527275 831.360474,116.722382 828.115845,116.985619 
	C804.222046,118.924110 780.308838,120.632568 756.390503,122.248123 
	C752.739380,122.494736 751.742676,123.653893 752.690063,127.215172 
	C755.084351,136.215729 757.193359,145.291824 759.485657,154.320114 
	C760.072754,156.632095 760.515442,158.914536 759.509521,161.167984 
	C754.080566,173.329834 748.613525,185.474686 742.800293,198.286850 
M719.711304,127.730530 
	C715.295776,123.962738 710.880432,120.194786 706.464661,116.427277 
	C705.076721,115.243073 703.598389,113.591003 701.743896,115.298637 
	C694.459778,122.005928 689.023438,130.249756 682.882385,138.203186 
	C696.845520,137.326920 710.325989,134.933411 724.719116,132.147934 
	C722.687256,130.320847 721.474182,129.229996 719.711304,127.730530 
z"/>
<path fill="#000000" opacity="1.000000" stroke="none" 
	d="
M276.019714,481.123230 
	C246.221970,492.997986 216.784622,504.736511 187.347275,516.475037 
	C186.937515,515.954407 186.527740,515.433777 186.117966,514.913147 
	C279.241364,407.038818 372.364746,299.164490 465.754242,190.981903 
	C467.774628,193.833542 466.162506,195.588364 465.511597,197.231537 
	C447.793488,241.960205 430.003845,286.660553 412.219116,331.362823 
	C409.145264,339.088989 409.391388,339.808746 416.139099,344.437531 
	C439.207275,360.261902 462.253693,376.117950 485.302582,391.970367 
	C486.384491,392.714478 487.639526,393.299164 488.598206,395.853333 
	C417.875031,424.224701 347.127563,452.605835 276.019714,481.123230 
z"/>
<path fill="#000000" opacity="1.000000" stroke="none" 
	d="
M276.128784,618.900635 
	C271.395599,629.997314 263.351746,637.329895 252.198822,642.237183 
	C256.855286,646.172791 261.404541,648.934753 264.829803,653.056274 
	C268.106415,656.998901 270.338867,661.249695 271.470276,666.264221 
	C276.969086,690.635559 264.875488,713.428955 241.897446,723.178711 
	C227.730942,729.189636 212.895859,730.677917 197.937210,730.881958 
	C166.799377,731.306824 135.652039,731.038086 104.508606,731.048401 
	C97.924469,731.050537 97.760910,731.012939 98.734383,724.838440 
	C102.049316,703.812805 107.270218,683.173096 111.539772,662.340149 
	C117.978951,630.920776 124.277786,599.472717 130.672073,568.044067 
	C132.159302,560.734253 132.259842,560.700378 139.836151,560.706604 
	C168.647766,560.730286 197.459503,560.726685 226.270920,560.821411 
	C237.545563,560.858459 248.508209,562.780457 258.709961,567.746094 
	C275.193420,575.769470 282.516479,590.494019 279.089386,608.476685 
	C278.439362,611.887573 277.230377,615.192017 276.128784,618.900635 
M216.294830,695.870789 
	C217.234512,695.540710 218.214066,695.294128 219.107513,694.867310 
	C225.892120,691.625916 231.264511,682.619324 230.519638,675.801147 
	C229.553528,666.957825 225.784103,663.039368 215.753586,660.866699 
	C212.360535,660.131714 208.864319,659.519043 205.409119,659.485596 
	C189.937897,659.335510 174.463837,659.487915 158.992294,659.355408 
	C155.453293,659.325012 153.971893,660.789246 153.294876,664.118225 
	C151.309204,673.882080 149.266541,683.641663 146.888184,693.314941 
	C145.793777,697.766113 147.246765,698.927551 151.477737,698.888367 
	C166.117157,698.752625 180.759460,698.766541 195.399170,698.895203 
	C202.279282,698.955688 208.988693,698.167725 216.294830,695.870789 
M161.975494,622.222351 
	C160.867645,628.227051 161.206970,628.757263 166.997162,628.769348 
	C179.964859,628.796570 192.935043,628.866272 205.899673,628.648315 
	C213.559906,628.519470 221.129837,627.789978 227.847153,623.288757 
	C233.096359,619.771362 237.326385,611.897156 236.438766,606.323547 
	C235.295822,599.146606 229.852539,594.373596 221.490753,593.303101 
	C204.927429,591.182678 188.284149,592.782715 171.686569,592.256409 
	C168.932495,592.169067 167.892288,593.648254 167.401611,596.065735 
	C165.685486,604.520996 163.896667,612.961487 161.975494,622.222351 
z"/>
<path fill="#000000" opacity="1.000000" stroke="none" 
	d="
M461.112976,734.139282 
	C439.748566,733.047180 420.045502,728.326538 403.628113,714.506897 
	C387.167786,700.651123 378.590088,682.555725 378.107880,661.234253 
	C377.477722,633.371277 386.650970,608.800598 406.521118,588.962280 
	C426.372345,569.142883 451.189636,560.094238 478.737549,557.670471 
	C497.678314,556.003967 515.937744,558.648987 533.291992,566.538391 
	C542.924561,570.917542 551.537170,576.776062 558.604858,584.829102 
	C561.233826,587.824707 561.627441,589.778748 558.103027,592.427124 
	C550.387207,598.224915 542.863464,604.289307 535.441833,610.461914 
	C532.728088,612.718933 530.773193,612.925781 528.269470,610.249329 
	C502.900116,583.128662 446.419037,589.459656 428.088593,626.537842 
	C421.570129,639.723145 418.592865,653.631470 423.115112,668.127747 
	C428.538422,685.512451 441.147797,694.469360 458.631042,697.736633 
	C470.105011,699.880920 481.121704,697.961609 492.207611,695.432434 
	C497.213898,694.290222 499.944427,691.517456 500.746948,686.392090 
	C502.780121,673.406799 505.693329,660.592224 508.443207,647.743591 
	C509.205414,644.182190 510.771912,643.004089 514.108643,643.021851 
	C523.936646,643.074280 533.765808,643.070557 543.593262,642.969421 
	C547.625000,642.927917 549.380249,644.127380 548.403381,648.610596 
	C543.941650,669.087402 539.666016,689.605103 535.413208,710.126648 
	C534.848206,712.853210 533.210144,714.458618 531.057373,715.880859 
	C512.870117,727.896729 492.420258,732.472351 471.089203,734.094727 
	C467.942108,734.333984 464.761902,734.138245 461.112976,734.139282 
z"/>
<path fill="#000000" opacity="1.000000" stroke="none" 
	d="
M614.911316,697.722534 
	C612.930054,707.424622 610.992859,716.704590 609.218140,726.015564 
	C608.553284,729.503723 606.920410,731.083374 603.170471,731.014893 
	C592.678711,730.823181 582.180786,730.867065 571.686584,730.960876 
	C567.426453,730.998962 566.302307,729.490356 567.149963,725.172363 
	C574.195312,689.282227 581.591797,653.466248 589.178284,617.686951 
	C592.902222,600.124268 596.283386,582.487671 599.670715,564.855896 
	C600.259705,561.790344 601.674500,560.683655 604.699280,560.687012 
	C647.013000,560.733704 689.326782,560.737732 731.640442,560.669495 
	C734.862061,560.664307 735.897705,562.058350 735.315613,564.924255 
	C733.462952,574.045410 731.577209,583.160461 729.599487,592.255066 
	C728.912292,595.415100 726.184265,594.940002 723.914062,594.941467 
	C707.421692,594.952148 690.929382,594.907837 674.437012,594.899719 
	C663.775269,594.894531 653.110474,595.074341 642.453308,594.859497 
	C638.079163,594.771362 635.764526,595.980347 634.971008,600.657715 
	C633.246704,610.821167 631.181763,620.937073 628.888184,630.988525 
	C628.022827,634.780884 629.151855,635.759827 632.692078,635.739807 
	C647.018311,635.658569 661.345276,635.713257 675.671997,635.713135 
	C685.167603,635.713074 694.663269,635.682739 704.158813,635.709290 
	C709.926819,635.725464 710.345581,636.228516 709.209595,641.708618 
	C707.622253,649.366028 705.697632,656.967346 704.477539,664.681274 
	C703.827515,668.790894 701.826172,669.945618 698.134583,669.914917 
	C689.139343,669.840027 680.143127,669.898376 671.147278,669.893494 
	C655.821106,669.885193 640.492126,670.023865 625.170776,669.745239 
	C621.462708,669.677856 620.140686,671.032227 619.536499,674.300903 
	C618.115723,681.987122 616.535645,689.643982 614.911316,697.722534 
z"/>
<path fill="#000000" opacity="1.000000" stroke="none" 
	d="
M440.033020,812.815796 
	C449.098145,804.982727 454.874237,794.946350 459.529907,784.243042 
	C462.432800,777.569275 462.186798,777.462219 469.336182,779.232971 
	C478.039612,781.388550 478.039612,781.388550 476.301300,791.009399 
	C477.734497,792.568237 479.674255,791.979858 481.406097,791.994629 
	C489.403564,792.063049 497.413605,792.294617 505.395752,791.940063 
	C510.718201,791.703674 515.075134,793.579834 519.466125,796.124084 
	C522.390137,797.818359 522.806885,799.609314 521.400452,802.650208 
	C516.526489,813.188110 510.214691,822.692749 501.966309,830.875122 
	C500.924194,831.908813 499.605927,832.664124 497.872040,833.952271 
	C508.236420,840.884460 519.155212,843.036438 530.330444,846.021851 
	C527.888550,851.382629 525.853760,856.076355 523.619141,860.672729 
	C522.214661,863.561523 519.699463,860.969543 518.135498,861.443054 
	C518.135498,878.505127 518.081604,895.434082 518.178528,912.362244 
	C518.199219,915.980713 516.875305,917.572937 513.182800,917.338867 
	C510.195282,917.149475 507.184784,917.224304 504.188019,917.308289 
	C501.432220,917.385437 499.211975,916.991760 498.883972,913.571533 
	C498.680817,911.452942 496.992065,911.017151 495.208923,911.014343 
	C485.878204,910.999756 476.547485,911.025635 467.216827,911.008057 
	C464.855957,911.003662 463.369385,911.855164 463.341339,914.449829 
	C463.323059,916.141235 462.579224,917.434448 460.823120,917.655945 
	C456.681122,918.178467 452.499481,918.270325 448.379272,917.612915 
	C445.083740,917.087158 445.700012,914.243774 445.693420,912.013855 
	C445.652466,898.184143 445.691406,884.354187 445.679749,870.524353 
	C445.677002,867.280945 446.584869,863.391724 440.908722,864.279114 
	C439.352295,864.522461 438.989471,862.761230 438.521606,861.501526 
	C437.587097,858.985352 437.474945,855.709595 433.096771,856.814453 
	C431.572937,857.198975 430.902588,855.039185 430.036469,853.869690 
	C428.794159,852.192139 428.286896,849.955933 426.021790,848.409180 
	C424.941345,851.697510 425.312134,854.689758 425.306824,857.607605 
	C425.273438,875.936096 425.190887,894.266174 425.409698,912.592346 
	C425.462158,916.987366 424.044678,918.442017 419.684540,918.349426 
	C405.790070,918.054199 407.817291,919.683228 407.727905,906.325439 
	C407.635712,892.548035 407.707428,878.769592 407.277863,864.867432 
	C403.012604,872.826172 400.552002,881.681763 393.935974,889.468079 
	C391.076050,883.767883 388.485168,878.847961 386.148590,873.809998 
	C385.366272,872.123230 386.815857,870.660339 387.648682,869.247375 
	C395.318054,856.236328 400.310608,842.142151 404.453949,827.707153 
	C404.716492,826.792480 404.717529,825.802734 404.931488,824.137573 
	C400.639465,824.137573 396.680573,824.096741 392.722931,824.150696 
	C389.656342,824.192566 388.272736,822.866089 388.049805,819.701294 
	C387.139221,806.775879 387.176453,806.666260 399.968719,806.641357 
	C407.675446,806.626343 407.676819,806.626343 407.699249,799.074707 
	C407.715088,793.742737 407.784698,788.410034 407.717041,783.079102 
	C407.680206,780.174194 408.873413,778.761963 411.851959,778.793091 
	C428.217865,778.963989 424.998566,776.927979 425.333405,791.162170 
	C425.364746,792.494568 425.346588,793.828064 425.345825,795.161072 
	C425.339630,805.677856 425.323700,805.910156 435.677490,806.601257 
	C440.352661,806.913330 438.758118,810.438110 440.033020,812.815796 
M495.076935,877.307739 
	C488.428589,877.307007 481.779053,877.223816 475.132172,877.322754 
	C461.518036,877.525330 463.703613,875.184998 463.345398,889.298950 
	C463.257599,892.758362 464.534790,894.074829 467.963287,894.002502 
	C474.442352,893.865784 480.926605,893.987915 487.408722,893.984802 
	C499.628479,893.979004 500.499939,892.928833 498.901215,880.631531 
	C498.654694,878.735229 498.061981,877.448730 495.076935,877.307739 
M437.355255,838.177917 
	C443.014801,845.903870 443.037720,845.966003 452.002045,842.660461 
	C457.532684,840.621094 463.034332,838.452393 467.837769,834.257507 
	C463.894043,830.113831 460.330444,826.369446 456.439911,822.281616 
	C454.183990,824.892456 452.356506,827.006226 450.530365,829.121094 
	C448.540009,831.426025 446.721771,831.922852 444.442108,829.224609 
	C439.946747,823.904114 434.049011,822.647949 426.875061,825.260925 
	C430.262238,829.410828 433.604218,833.505310 437.355255,838.177917 
M489.482727,861.105896 
	C497.549347,861.703247 505.611938,861.744263 514.797974,861.145569 
	C513.115723,860.291504 512.443420,859.859131 511.710907,859.592102 
	C502.640167,856.285583 493.530884,853.062683 485.501617,847.505920 
	C483.650269,846.224731 482.112030,846.859375 480.500793,848.010010 
	C473.798981,852.795776 466.147369,855.660889 458.616852,858.774841 
	C457.375092,859.288330 455.727173,859.487488 455.503815,861.116882 
	C466.638092,861.116882 477.608704,861.116882 489.482727,861.105896 
M477.620392,809.055603 
	C474.951874,809.430969 472.002594,808.147827 469.133698,810.583557 
	C472.513855,815.271851 476.197754,819.453308 480.388550,823.201416 
	C481.309937,824.025452 482.563721,824.560608 483.577637,823.698425 
	C488.307709,819.676025 492.990997,815.583435 497.032501,809.052612 
	C490.084167,809.052612 484.335510,809.052612 477.620392,809.055603 
z"/>
<path fill="#000000" opacity="1.000000" stroke="none" 
	d="
M863.888550,653.177246 
	C867.843994,633.900696 871.700195,615.036987 875.505249,596.423706 
	C872.949524,594.332764 870.529724,594.951904 868.277100,594.945129 
	C853.781860,594.901428 839.286377,594.966003 824.791138,594.930786 
	C819.541626,594.918030 818.983337,594.150085 820.074463,589.019714 
	C821.769287,581.051147 823.578674,573.105286 825.143799,565.111572 
	C825.758606,561.971558 827.147339,560.658264 830.486023,560.663330 
	C879.637085,560.738220 928.788452,560.733704 977.939514,560.657410 
	C981.902649,560.651245 982.840149,562.042664 981.958984,565.805664 
	C980.139038,573.577271 978.513855,581.402405 977.099854,589.257935 
	C976.343384,593.460449 974.356873,595.064941 970.017822,595.010986 
	C954.691833,594.820435 939.360596,595.059937 924.033997,594.895081 
	C919.739563,594.848877 917.959290,596.330688 917.110596,600.666382 
	C911.839355,627.594482 906.270020,654.464233 900.783203,681.349976 
	C897.826172,695.839661 894.648987,710.288147 891.967957,724.828369 
	C891.082336,729.631531 888.823425,731.117310 884.249390,731.026001 
	C874.089905,730.822937 863.923218,731.012939 853.760437,730.929443 
	C848.520874,730.886353 848.079285,730.127991 849.153015,724.918030 
	C854.052307,701.146301 858.914001,677.366821 863.888550,653.177246 
z"/>
<path fill="#000000" opacity="1.000000" stroke="none" 
	d="
M711.624268,800.082825 
	C711.707703,792.050720 711.707642,792.035828 719.463562,791.993469 
	C725.795288,791.958923 732.129333,791.862549 738.458191,791.994202 
	C741.954773,792.066895 743.834290,790.825928 744.970215,787.309509 
	C747.990356,777.960388 748.163818,778.013367 757.765381,778.712585 
	C761.061768,778.952576 765.185608,778.049377 767.302551,780.562195 
	C769.956055,783.711731 765.315674,786.339905 764.944214,789.504395 
	C764.888733,789.976807 764.936401,790.461304 764.936401,790.968628 
	C766.490479,792.436584 768.414734,791.889709 770.168396,791.903137 
	C779.332520,791.973450 788.498596,792.052917 797.661194,791.923828 
	C801.728577,791.866516 803.244629,793.439270 803.152283,797.565308 
	C802.924927,807.724670 803.040771,817.892029 803.055054,828.056213 
	C803.058044,830.185242 802.689636,832.361572 803.757141,834.913391 
	C806.623291,832.795410 808.077026,829.827576 809.625366,827.070435 
	C811.098083,824.447632 812.721924,823.953552 815.293091,825.364319 
	C818.650330,827.206482 822.080566,828.918762 825.509827,830.625671 
	C828.384888,832.056763 828.427124,833.865784 826.489075,836.156311 
	C819.931885,843.906067 814.189209,852.355347 806.713135,859.313477 
	C803.959961,861.875793 802.883057,864.862610 802.977661,868.659485 
	C803.189270,877.152222 803.058960,885.653931 803.037231,894.151917 
	C802.998291,909.326355 799.109985,914.202942 784.257202,916.764038 
	C778.708069,917.720947 773.004333,917.798035 767.366577,918.215088 
	C765.443787,918.357300 763.571777,917.985596 762.815735,915.924377 
	C760.890076,910.674194 759.083740,905.380249 756.875732,899.096680 
	C763.625061,899.096680 769.523438,899.010254 775.418152,899.118469 
	C782.805908,899.254089 783.853638,898.386230 783.740295,890.960388 
	C783.685425,887.367798 784.376892,883.714661 783.238647,879.526245 
	C776.297180,883.770203 769.710999,887.825867 763.096863,891.835388 
	C744.909546,902.860413 725.263794,910.595642 705.257080,917.539673 
	C702.396240,918.532654 700.664307,918.004822 699.029297,915.390442 
	C696.499573,911.345215 693.581665,907.542847 690.337341,902.941040 
	C713.723572,896.544312 735.549561,888.019226 756.164795,876.633118 
	C756.080688,876.203979 755.996521,875.774841 755.912415,875.345703 
	C753.629456,875.345703 751.346497,875.345459 749.063538,875.345764 
	C732.400696,875.347717 715.736145,875.216370 699.076233,875.437256 
	C694.396790,875.499329 692.530212,874.177551 692.702576,869.249756 
	C693.081299,858.423706 691.697998,859.711548 702.418091,859.632324 
	C711.615295,859.564392 711.621094,859.610657 711.623291,850.558167 
	C711.627258,833.895203 711.624207,817.232239 711.624268,800.082825 
M759.499329,859.624329 
	C764.824158,859.623596 770.149109,859.609253 775.473877,859.629639 
	C777.321594,859.636719 779.106506,859.490845 780.812622,858.653381 
	C782.986755,857.586243 784.297180,856.004578 783.819153,853.511475 
	C783.338745,851.005554 781.192749,851.332703 779.417480,851.328735 
	C764.607849,851.295532 749.798157,851.322021 734.988586,851.287292 
	C732.248962,851.280823 730.090820,851.499084 730.093628,855.184875 
	C730.096375,858.796326 731.777344,859.708313 735.037781,859.653015 
	C742.856323,859.520447 750.678772,859.618347 759.499329,859.624329 
M734.882812,808.291565 
	C732.295654,808.143066 730.319458,808.496155 730.332275,811.907349 
	C730.346069,815.566284 732.575195,815.793030 735.293091,815.788635 
	C749.747437,815.765381 764.201782,815.763184 778.656128,815.791809 
	C781.499573,815.797424 784.028503,815.798096 783.906189,811.757629 
	C783.787720,807.848999 781.132996,808.292114 778.662415,808.290039 
	C764.374207,808.277893 750.085938,808.288696 734.882812,808.291565 
M767.495850,830.185120 
	C757.355469,830.096313 747.214355,829.907593 737.075317,829.987549 
	C734.466431,830.008118 730.371948,828.433655 730.422852,833.449768 
	C730.470093,838.099792 734.309021,836.638245 736.799988,836.681885 
	C746.606689,836.853760 756.417419,836.801514 766.226624,836.825684 
	C770.549438,836.836365 774.873047,836.778809 779.194702,836.850952 
	C781.966370,836.897278 784.248047,836.534180 784.180786,832.971985 
	C784.114258,829.451172 781.450012,830.263306 779.465027,830.203430 
	C775.810791,830.093201 772.150513,830.180237 767.495850,830.185120 
z"/>
<path fill="#000000" opacity="1.000000" stroke="none" 
	d="
M343.698242,678.658325 
	C340.445709,694.549316 337.225159,710.018250 334.232025,725.531006 
	C333.455475,729.555847 331.515442,731.082397 327.450073,731.015381 
	C317.128418,730.845215 306.801636,731.016113 296.477142,730.978516 
	C290.641479,730.957336 290.404541,730.617798 291.552704,724.997192 
	C301.067200,678.421631 310.581665,631.846069 320.110504,585.273438 
	C321.509949,578.433655 323.104462,571.631470 324.369781,564.767822 
	C324.932770,561.713806 326.391998,560.630615 329.429779,560.657227 
	C340.586029,560.755127 351.745056,560.762756 362.900421,560.611511 
	C366.936035,560.556824 367.773224,562.385437 367.041473,565.895447 
	C360.865753,595.518982 354.718292,625.148560 348.579803,654.779907 
	C346.960266,662.597595 345.401581,670.427979 343.698242,678.658325 
z"/>
<path fill="#000000" opacity="1.000000" stroke="none" 
	d="
M746.001343,730.969177 
	C741.337158,730.963318 737.170166,730.867737 733.008667,730.979065 
	C728.972778,731.087036 727.375122,730.017273 728.354431,725.401489 
	C733.772705,699.866943 738.874695,674.265320 744.092346,648.688171 
	C749.608887,621.646179 755.282471,594.634583 760.528381,567.540222 
	C761.567688,562.172424 763.666992,560.438721 769.068848,560.677612 
	C779.044617,561.118774 789.054565,560.900391 799.047974,560.773376 
	C803.083374,560.722107 804.743774,561.621216 803.761230,566.261719 
	C798.009155,593.428894 792.517578,620.651245 786.974243,647.862427 
	C781.663452,673.932312 776.361389,700.004150 771.151733,726.094421 
	C770.433533,729.690918 768.617310,731.117554 764.990662,731.018860 
	C758.831482,730.851196 752.664551,730.971008 746.001343,730.969177 
z"/>
<path fill="#000000" opacity="1.000000" stroke="none" 
	d="
M548.189209,849.085449 
	C546.763855,850.121521 546.125244,851.696716 543.721985,852.053162 
	C541.017578,848.241455 540.245728,843.173584 537.823975,838.998474 
	C534.637512,833.504822 538.087341,829.958130 540.659546,825.929749 
	C548.681213,813.367004 554.922363,799.984436 559.085876,785.644287 
	C560.964661,779.173279 561.306702,779.048584 567.829590,780.785645 
	C569.116516,781.128296 570.388794,781.534607 571.687439,781.823181 
	C575.033264,782.566528 577.826660,783.774597 576.877197,788.755249 
	C584.748108,788.755249 592.194275,788.751099 599.640503,788.756226 
	C610.114075,788.763428 610.759155,789.527771 607.436157,799.528503 
	C604.142334,809.441406 600.568604,819.261353 596.915161,829.700623 
	C600.425354,830.002441 603.335266,830.202209 606.233215,830.513428 
	C610.733521,830.996704 612.555359,833.518555 612.123169,838.027161 
	C610.661255,853.277039 608.957947,868.476379 603.441528,882.929810 
	C602.490479,885.421570 603.340515,886.959351 605.238098,888.504211 
	C615.378601,896.760254 627.355164,900.040161 640.025330,900.509827 
	C651.495178,900.934998 663.016602,901.074646 674.494934,900.019958 
	C676.081421,899.874146 677.795654,899.395752 679.626770,900.891724 
	C678.031311,905.139526 676.490356,909.458313 674.773010,913.705872 
	C674.106689,915.353943 672.410217,915.389893 670.888306,915.346313 
	C654.266785,914.870972 637.595154,916.569336 621.028503,913.428711 
	C611.428772,911.608765 603.239868,907.110840 594.920227,901.503479 
	C590.726013,906.459656 586.834595,911.401855 582.006042,915.457764 
	C579.138733,917.866150 576.822205,919.132812 574.728149,914.703613 
	C573.186096,911.442078 568.139587,910.155090 568.539062,906.146057 
	C568.900391,902.519287 573.332642,901.400024 575.612976,898.766479 
	C583.335205,889.847961 583.418457,889.937317 578.163879,879.250000 
	C575.656372,874.149963 574.046814,868.709717 572.170166,863.366699 
	C571.208984,860.630066 572.126709,859.536682 574.686646,858.602478 
	C584.503906,855.019653 584.460815,854.946411 588.201416,864.492615 
	C588.793945,866.004883 589.139221,867.706055 591.031189,868.955688 
	C593.027161,862.665283 594.455139,856.455200 594.923767,850.025024 
	C595.150574,846.912781 593.427856,845.918823 590.639038,845.935120 
	C586.639648,845.958496 582.639648,845.887939 578.640137,845.903259 
	C574.733337,845.918152 573.527405,844.294128 575.049622,840.564026 
	C579.138611,830.544373 583.127563,820.483948 587.157104,810.440002 
	C587.827271,808.769592 588.501831,807.100952 589.340332,805.019348 
	C585.588623,803.676453 582.090759,804.483459 578.723694,804.162170 
	C573.664612,803.679260 576.909668,798.317261 573.658447,796.109192 
	C571.337341,804.001160 567.054321,810.867310 567.139709,819.444458 
	C567.445007,850.106934 567.320862,880.773804 567.354980,911.438965 
	C567.362549,918.239502 567.354309,918.297974 560.351929,918.253784 
	C549.278320,918.183899 550.726624,919.284607 550.684875,908.707336 
	C550.612488,890.374939 550.687866,872.041931 550.569824,853.709961 
	C550.558899,852.008301 551.846924,849.281189 548.189209,849.085449 
z"/>
<path fill="#000000" opacity="1.000000" stroke="none" 
	d="
M658.108765,883.430786 
	C656.679077,883.434021 655.679810,883.436829 654.680542,883.444275 
	C647.490479,883.498047 647.305359,883.501892 647.446655,890.878601 
	C647.522827,894.850525 646.399597,896.945007 642.134583,896.427856 
	C641.644043,896.368408 641.128296,896.390320 640.638794,896.467407 
	C632.266174,897.785889 631.071960,896.764038 631.714294,888.394897 
	C631.957703,885.223877 630.587585,883.802917 627.373657,883.861023 
	C623.379944,883.933289 619.382446,883.766907 615.386536,883.761963 
	C612.262817,883.758118 610.795166,882.334412 611.052185,879.147400 
	C611.172424,877.657471 611.161255,876.147522 611.084534,874.653015 
	C610.895081,870.963806 612.715881,869.598389 616.254333,869.739868 
	C620.079102,869.892883 623.913818,869.791687 627.744080,869.816650 
	C630.001587,869.831360 631.718018,869.248413 631.704407,866.521912 
	C631.690674,863.766235 629.903687,863.282410 627.681458,863.293457 
	C625.849548,863.302612 624.017578,863.280884 622.185608,863.276550 
	C615.430725,863.260498 611.998718,857.602783 614.981018,851.479675 
	C615.806946,849.783936 617.292053,849.752014 618.780701,849.716125 
	C621.777222,849.643860 624.775635,849.655090 627.773315,849.626404 
	C630.000549,849.605164 631.786987,849.063293 631.686096,846.296265 
	C631.595459,843.811096 629.932556,843.370972 627.914062,843.361755 
	C625.249390,843.349609 622.582275,843.239746 619.920898,843.322327 
	C616.915466,843.415588 615.907349,841.954468 615.726318,839.086792 
	C615.182068,830.466003 615.593384,829.924194 624.084961,829.922729 
	C625.417236,829.922546 626.749634,829.918396 628.081848,829.905884 
	C630.131592,829.886536 631.672546,829.335327 631.713013,826.843689 
	C631.756653,824.152649 630.201172,823.417908 627.886353,823.412476 
	C622.557007,823.399902 617.225891,823.273315 611.898987,823.375122 
	C608.895386,823.432495 607.579590,822.198547 607.787415,819.224182 
	C607.914978,817.397644 607.984253,815.566284 608.042419,813.735840 
	C608.132446,810.901062 609.419312,809.561096 612.405579,809.642883 
	C617.398071,809.779602 622.397278,809.682739 627.393616,809.666260 
	C629.473694,809.659424 631.540222,809.583069 631.664307,806.722229 
	C631.801819,803.549377 629.628052,803.369568 627.314575,803.366821 
	C625.815674,803.364990 624.316833,803.350769 622.817932,803.344299 
	C615.314148,803.312073 615.530945,803.314148 615.590881,795.927673 
	C615.624939,791.730713 617.281555,790.184021 621.280212,790.636353 
	C622.432190,790.766663 623.609680,790.671143 624.775452,790.681885 
	C631.574585,790.744568 631.764343,790.743469 631.713440,783.886047 
	C631.684631,780.001099 633.039551,778.273560 636.957275,778.687012 
	C638.111511,778.808899 639.287170,778.719177 640.452698,778.743530 
	C647.130798,778.882996 647.448730,778.934448 647.208374,785.423645 
	C647.039551,789.982483 648.850281,791.277039 653.075745,790.989746 
	C657.053345,790.719299 661.067627,791.044189 665.062317,790.953796 
	C668.580811,790.874207 670.381104,792.306274 670.237305,795.963074 
	C670.152344,798.124390 670.308472,800.294739 670.235046,802.456970 
	C670.098389,806.482971 669.871582,810.418152 675.875244,809.846497 
	C677.439026,809.697571 678.156738,811.058105 678.191772,812.552124 
	C678.250305,815.048096 678.239197,817.545776 678.243958,820.042786 
	C678.248230,822.302063 677.131470,823.496765 674.851379,823.307068 
	C670.829346,822.972473 670.132874,825.330322 670.238159,828.618347 
	C670.344666,831.945435 670.135010,835.283081 670.255432,838.609192 
	C670.376831,841.963806 669.072510,843.489868 665.575806,843.364502 
	C660.918762,843.197510 656.250732,843.339661 651.587463,843.341614 
	C649.464233,843.342529 647.469177,843.509460 647.370544,846.342896 
	C647.259338,849.535889 649.458801,849.636292 651.759705,849.638306 
	C656.756042,849.642639 661.755798,849.787781 666.747437,849.642334 
	C670.165833,849.542847 671.702881,850.872437 671.428467,854.330017 
	C671.310364,855.817932 671.320740,857.339417 671.486023,858.821838 
	C671.862610,862.199219 670.210144,863.210144 667.101746,863.147217 
	C661.941345,863.042847 656.776611,863.172058 651.613708,863.170715 
	C649.269531,863.170166 647.251465,863.378784 647.277466,866.540833 
	C647.303467,869.704590 649.364868,869.871094 651.680359,869.865723 
	C657.676025,869.851807 663.677307,870.005859 669.665405,869.789978 
	C673.656921,869.646057 675.369507,870.965088 675.364441,875.194031 
	C675.354065,883.850830 675.329712,884.074158 666.518372,883.853455 
	C663.856812,883.786804 661.198853,883.576843 658.108765,883.430786 
M649.079956,803.450134 
	C646.450378,804.821411 646.684448,807.167358 648.061035,808.861816 
	C649.552612,810.697815 652.092102,810.030457 654.138794,809.457947 
	C656.012390,808.933716 655.871948,807.120361 655.556641,805.689575 
	C654.815125,802.324219 652.006104,803.546204 649.079956,803.450134 
M655.415161,825.172058 
	C653.997986,822.876099 651.758118,823.355896 649.657532,823.531921 
	C648.374268,823.639526 647.555176,824.452881 647.386963,825.753479 
	C647.217529,827.064941 647.077087,828.425354 648.282593,829.393616 
	C650.876526,831.476562 655.006836,829.505127 655.415161,825.172058 
z"/>
<path fill="#000000" opacity="1.000000" stroke="none" 
	d="
M374.472046,888.287537 
	C374.265503,890.225830 374.204865,891.730591 373.968567,893.207153 
	C371.370667,909.439209 364.537354,915.341370 348.066498,915.149841 
	C339.931610,915.055237 331.766296,915.938782 323.656586,914.332886 
	C315.571899,912.731934 311.209137,907.735718 309.940430,899.850037 
	C309.386719,896.408386 308.928894,892.904968 308.922729,889.428772 
	C308.861542,854.954895 308.965729,820.480530 308.845886,786.007019 
	C308.829437,781.275757 310.358734,779.582153 315.199402,779.717468 
	C330.826263,780.154236 329.019318,777.536438 329.098633,793.474670 
	C329.146729,803.133911 329.071747,812.793884 329.136475,822.452942 
	C329.150604,824.562500 328.762482,826.758545 330.162079,829.584778 
	C334.157440,826.123718 338.034729,822.917358 341.737427,819.520752 
	C347.014801,814.679626 352.212097,809.724976 356.667511,804.105347 
	C359.181641,800.934326 361.215363,800.844910 363.841370,803.895996 
	C366.444489,806.920532 369.186279,809.864319 372.149109,812.530273 
	C375.443573,815.494446 374.593323,817.489685 371.571808,820.062805 
	C359.518951,830.327148 347.078674,840.087280 333.997955,848.989502 
	C330.432709,851.415833 328.901337,854.061951 329.018982,858.401550 
	C329.303192,868.886475 329.236084,879.384827 329.106201,889.875305 
	C329.048401,894.543640 331.167572,896.645020 335.672607,896.656067 
	C339.834503,896.666260 343.999329,896.564880 348.157623,896.688232 
	C352.989319,896.831665 355.006134,894.105896 355.713440,889.795532 
	C356.769440,883.360291 356.759277,876.865845 356.926453,870.376099 
	C356.980408,868.279724 356.540100,866.004211 358.567993,863.943481 
	C363.989624,865.802490 368.642517,869.405640 373.821838,871.941345 
	C375.213348,872.622681 375.315521,874.063293 375.293060,875.419922 
	C375.224365,879.570557 375.681488,883.755493 374.472046,888.287537 
z"/>
<path fill="#000000" opacity="1.000000" stroke="none" 
	d="
M286.993958,841.347412 
	C281.665039,841.344666 276.833557,841.387085 272.003601,841.319702 
	C269.577820,841.285889 268.222107,842.158203 268.232361,844.764587 
	C268.287415,858.754639 268.304932,872.744812 268.367706,886.734863 
	C268.369751,887.187317 268.720215,887.638245 269.084808,888.513916 
	C273.207581,888.149780 276.879089,886.200195 280.675629,884.738403 
	C285.492401,882.883850 290.286011,880.966309 295.058563,879.000549 
	C298.540649,877.566406 300.029999,878.798035 300.140259,882.409058 
	C300.241821,885.734680 300.527313,889.054382 300.716919,892.377563 
	C300.830231,894.363525 300.268372,895.979431 298.276855,896.841675 
	C282.278168,903.768799 266.283539,910.705444 249.882050,917.814941 
	C247.365082,913.041260 244.833145,908.222534 242.283630,903.413147 
	C241.412598,901.770020 242.188736,900.534546 243.238373,899.375366 
	C247.678970,894.471130 248.660019,888.459961 248.663574,882.179565 
	C248.681229,851.028809 248.645126,819.878113 248.671661,788.727356 
	C248.677658,781.669800 248.757690,781.669922 255.876434,781.617676 
	C268.238098,781.527100 268.231903,781.527100 268.213074,793.974182 
	C268.201233,801.803467 268.336395,809.635681 268.158081,817.460876 
	C268.070526,821.302124 269.409241,822.827942 273.373718,822.712524 
	C281.029816,822.489563 288.699554,822.769714 296.359070,822.614197 
	C299.898682,822.542297 301.516937,823.636475 301.426239,827.440552 
	C301.024872,844.275574 303.893890,840.913086 286.993958,841.347412 
z"/>
</svg>